<?xml version="1.0" encoding="UTF-8"?>
<svg version="1.1" xmlns="http://www.w3.org/2000/svg" width="512" height="512">
<path d="M0 0 C16.5 0 33 0 50 0 C51.875 11.875 51.875 11.875 52.45263672 15.55419922 C52.95364295 18.70535918 53.47627498 21.85254395 54 25 C54.14904785 25.98170166 54.2980957 26.96340332 54.45166016 27.97485352 C54.6016748 28.86873779 54.75168945 29.76262207 54.90625 30.68359375 C55.03064453 31.46790771 55.15503906 32.25222168 55.28320312 33.06030273 C56.21004711 35.56840064 57.2367999 36.0851354 59.625 37.1875 C60.41648437 37.45304687 61.20796875 37.71859375 62.0234375 37.9921875 C64.45766623 38.81637518 66.65821731 39.73170775 68.9765625 40.8203125 C69.67958496 41.14749268 70.38260742 41.47467285 71.10693359 41.81176758 C72.51623581 42.46985938 73.92291238 43.13360879 75.32666016 43.8034668 C79.41543274 45.64934961 81.71533782 46.27286847 86 45 C88.13723955 43.81502265 88.13723955 43.81502265 90.14453125 42.26953125 C90.90443359 41.71330078 91.66433594 41.15707031 92.44726562 40.58398438 C93.22779297 39.99939453 94.00832031 39.41480469 94.8125 38.8125 C95.96588867 37.96461914 95.96588867 37.96461914 97.14257812 37.09960938 C99.4361586 35.40990831 101.71973602 33.70761961 104 32 C104.77778809 31.41782715 105.55557617 30.8356543 106.35693359 30.23583984 C108.23907456 28.82537393 110.12014453 27.4135098 112 26 C114.99943905 27.34572887 117.08076179 28.83537101 119.39160156 31.16455078 C120.35214447 32.12532028 120.35214447 32.12532028 121.33209229 33.10549927 C122.01140808 33.79513763 122.69072388 34.484776 123.390625 35.1953125 C124.09523865 35.90275604 124.79985229 36.61019958 125.52581787 37.33908081 C127.7719539 39.59639862 130.01103009 41.86057633 132.25 44.125 C133.77297717 45.65800953 135.29640939 47.19056715 136.8203125 48.72265625 C140.55216815 52.47654573 144.27825351 56.23608914 148 60 C146.75628074 63.41199937 145.37354289 66.10454715 143.13671875 68.9609375 C142.57919922 69.68023437 142.02167969 70.39953125 141.44726562 71.140625 C140.86654297 71.87796875 140.28582031 72.6153125 139.6875 73.375 C137.98620522 75.55604834 136.28814386 77.73903896 134.60302734 79.93261719 C133.56761041 81.26796757 132.51176129 82.58783271 131.43212891 83.88769531 C129.20511736 86.68820274 127.99756964 88.37539826 128.01171875 92.01171875 C129.33440578 96.01114791 130.90434149 99.83089655 132.65893555 103.65942383 C133.88807825 106.36068345 134.9795816 108.91670219 135.6875 111.8046875 C136.41481851 114.57758933 136.93825792 115.9845892 139 118 C142.88732023 119.26595124 146.61516952 119.90668804 150.6640625 120.3671875 C158.4816166 121.29430592 166.23477394 122.70579566 174 124 C174 140.5 174 157 174 174 C162.125 175.875 162.125 175.875 158.44580078 176.45263672 C155.29464082 176.95364295 152.14745605 177.47627498 149 178 C147.52744751 178.22357178 147.52744751 178.22357178 146.02514648 178.45166016 C145.13126221 178.6016748 144.23737793 178.75168945 143.31640625 178.90625 C142.53209229 179.03064453 141.74777832 179.15503906 140.93969727 179.28320312 C138.43159936 180.21004711 137.9148646 181.2367999 136.8125 183.625 C136.54695313 184.41648437 136.28140625 185.20796875 136.0078125 186.0234375 C135.18362482 188.45766623 134.26829225 190.65821731 133.1796875 192.9765625 C132.85250732 193.67958496 132.52532715 194.38260742 132.18823242 195.10693359 C131.53014062 196.51623581 130.86639121 197.92291238 130.1965332 199.32666016 C128.35065039 203.41543274 127.72713153 205.71533782 129 210 C130.18497735 212.13723955 130.18497735 212.13723955 131.73046875 214.14453125 C132.28669922 214.90443359 132.84292969 215.66433594 133.41601562 216.44726562 C134.00060547 217.22779297 134.58519531 218.00832031 135.1875 218.8125 C135.75275391 219.58142578 136.31800781 220.35035156 136.90039062 221.14257812 C138.59009169 223.4361586 140.29238039 225.71973602 142 228 C142.58217285 228.77778809 143.1643457 229.55557617 143.76416016 230.35693359 C145.17462607 232.23907456 146.5864902 234.12014453 148 236 C146.65427113 238.99943905 145.16462899 241.08076179 142.83544922 243.39160156 C141.87467972 244.35214447 141.87467972 244.35214447 140.89450073 245.33209229 C140.20486237 246.01140808 139.515224 246.69072388 138.8046875 247.390625 C138.09724396 248.09523865 137.38980042 248.79985229 136.66091919 249.52581787 C134.40360138 251.7719539 132.13942367 254.01103009 129.875 256.25 C128.34199047 257.77297717 126.80943285 259.29640939 125.27734375 260.8203125 C121.52345427 264.55216815 117.76391086 268.27825351 114 272 C110.58800063 270.75628074 107.89545285 269.37354289 105.0390625 267.13671875 C104.31976563 266.57919922 103.60046875 266.02167969 102.859375 265.44726562 C102.12203125 264.86654297 101.3846875 264.28582031 100.625 263.6875 C98.44395166 261.98620522 96.26096104 260.28814386 94.06738281 258.60302734 C92.73203243 257.56761041 91.41216729 256.51176129 90.11230469 255.43212891 C87.31179726 253.20511736 85.62460174 251.99756964 81.98828125 252.01171875 C77.98885209 253.33440578 74.16910345 254.90434149 70.34057617 256.65893555 C67.63931655 257.88807825 65.08329781 258.9795816 62.1953125 259.6875 C59.42241067 260.41481851 58.0154108 260.93825792 56 263 C54.73404876 266.88732023 54.09331196 270.61516952 53.6328125 274.6640625 C52.70569408 282.4816166 51.29420434 290.23477394 50 298 C33.5 298 17 298 0 298 C-1.875 286.125 -1.875 286.125 -2.45263672 282.44580078 C-2.95364295 279.29464082 -3.47627498 276.14745605 -4 273 C-4.22357178 271.52744751 -4.22357178 271.52744751 -4.45166016 270.02514648 C-4.6016748 269.13126221 -4.75168945 268.23737793 -4.90625 267.31640625 C-5.03064453 266.53209229 -5.15503906 265.74777832 -5.28320312 264.93969727 C-6.21004711 262.43159936 -7.2367999 261.9148646 -9.625 260.8125 C-10.41648437 260.54695313 -11.20796875 260.28140625 -12.0234375 260.0078125 C-14.45766623 259.18362482 -16.65821731 258.26829225 -18.9765625 257.1796875 C-19.67958496 256.85250732 -20.38260742 256.52532715 -21.10693359 256.18823242 C-22.51623581 255.53014062 -23.92291238 254.86639121 -25.32666016 254.1965332 C-28.13491016 252.92874432 -30.4689565 251.99597084 -33.57421875 252.01953125 C-36.92519143 253.37395016 -39.68988739 255.34934241 -42.5625 257.5 C-43.16658691 257.9419873 -43.77067383 258.38397461 -44.39306641 258.83935547 C-46.26941309 260.21658511 -48.13568838 261.60653341 -50 263 C-50.90032959 263.66950684 -50.90032959 263.66950684 -51.81884766 264.35253906 C-55.22462331 266.88588534 -58.61767458 269.43537963 -62 272 C-64.99943905 270.65427113 -67.08076179 269.16462899 -69.39160156 266.83544922 C-70.0319635 266.19493622 -70.67232544 265.55442322 -71.33209229 264.89450073 C-72.35106598 263.86004318 -72.35106598 263.86004318 -73.390625 262.8046875 C-74.09523865 262.09724396 -74.79985229 261.38980042 -75.52581787 260.66091919 C-77.7719539 258.40360138 -80.01103009 256.13942367 -82.25 253.875 C-83.77297717 252.34199047 -85.29640939 250.80943285 -86.8203125 249.27734375 C-90.55216815 245.52345427 -94.27825351 241.76391086 -98 238 C-96.38979757 233.70703197 -94.22342545 230.43271928 -91.375 226.875 C-90.47985371 225.7257392 -89.58533259 224.57599122 -88.69140625 223.42578125 C-86.98387369 221.24458174 -85.26094474 219.0788079 -83.52734375 216.91796875 C-82.79644531 215.97566406 -82.06554687 215.03335938 -81.3125 214.0625 C-80.64863281 213.22847656 -79.98476562 212.39445313 -79.30078125 211.53515625 C-77.55073255 208.12440067 -77.95250647 206.66845608 -79 203 C-80.02633351 200.12192002 -81.17928451 197.3114137 -82.375 194.5 C-82.67921875 193.76652344 -82.9834375 193.03304687 -83.296875 192.27734375 C-83.89815782 190.8409459 -84.51283395 189.41006894 -85.1418457 187.9855957 C-85.91002697 186.20817941 -86.588357 184.39255737 -87.25390625 182.57421875 C-88.84217015 179.67358371 -88.84217015 179.67358371 -92.37890625 178.86328125 C-93.76958661 178.65249176 -95.164758 178.46979393 -96.5625 178.3125 C-97.91808712 178.12193391 -99.27354798 177.93046829 -100.62890625 177.73828125 C-102.40136719 177.49464844 -104.17382812 177.25101563 -106 177 C-111.94 176.01 -117.88 175.02 -124 174 C-124 157.5 -124 141 -124 124 C-112.125 122.125 -112.125 122.125 -108.44580078 121.54736328 C-105.29464082 121.04635705 -102.14745605 120.52372502 -99 120 C-98.01829834 119.85095215 -97.03659668 119.7019043 -96.02514648 119.54833984 C-95.13126221 119.3983252 -94.23737793 119.24831055 -93.31640625 119.09375 C-92.53209229 118.96935547 -91.74777832 118.84496094 -90.93969727 118.71679688 C-88.43159936 117.78995289 -87.9148646 116.7632001 -86.8125 114.375 C-86.41417969 113.18777344 -86.41417969 113.18777344 -86.0078125 111.9765625 C-85.18362482 109.54233377 -84.26829225 107.34178269 -83.1796875 105.0234375 C-82.85250732 104.32041504 -82.52532715 103.61739258 -82.18823242 102.89306641 C-81.53014062 101.48376419 -80.86639121 100.07708762 -80.1965332 98.67333984 C-78.92874432 95.86508984 -77.99597084 93.5310435 -78.01953125 90.42578125 C-79.37395016 87.07480857 -81.34934241 84.31011261 -83.5 81.4375 C-83.9419873 80.83341309 -84.38397461 80.22932617 -84.83935547 79.60693359 C-86.21658511 77.73058691 -87.60653341 75.86431162 -89 74 C-89.44633789 73.39978027 -89.89267578 72.79956055 -90.35253906 72.18115234 C-92.88588534 68.77537669 -95.43537963 65.38232542 -98 62 C-96.65427113 59.00056095 -95.16462899 56.91923821 -92.83544922 54.60839844 C-92.19493622 53.9680365 -91.55442322 53.32767456 -90.89450073 52.66790771 C-90.20486237 51.98859192 -89.515224 51.30927612 -88.8046875 50.609375 C-88.09724396 49.90476135 -87.38980042 49.20014771 -86.66091919 48.47418213 C-84.40360138 46.2280461 -82.13942367 43.98896991 -79.875 41.75 C-78.34199047 40.22702283 -76.80943285 38.70359061 -75.27734375 37.1796875 C-71.52345427 33.44783185 -67.76391086 29.72174649 -64 26 C-59.70703197 27.61020243 -56.43271928 29.77657455 -52.875 32.625 C-51.7257392 33.52014629 -50.57599122 34.41466741 -49.42578125 35.30859375 C-47.24458174 37.01612631 -45.0788079 38.73905526 -42.91796875 40.47265625 C-41.97566406 41.20355469 -41.03335938 41.93445313 -40.0625 42.6875 C-39.22847656 43.35136719 -38.39445312 44.01523438 -37.53515625 44.69921875 C-34.12440067 46.44926745 -32.66845608 46.04749353 -29 45 C-26.12192002 43.97366649 -23.3114137 42.82071549 -20.5 41.625 C-19.76652344 41.32078125 -19.03304687 41.0165625 -18.27734375 40.703125 C-16.8409459 40.10184218 -15.41006894 39.48716605 -13.9855957 38.8581543 C-12.20817941 38.08997303 -10.39255737 37.411643 -8.57421875 36.74609375 C-5.67358371 35.15782985 -5.67358371 35.15782985 -4.86328125 31.62109375 C-4.65249176 30.23041339 -4.46979393 28.835242 -4.3125 27.4375 C-4.12193391 26.08191288 -3.93046829 24.72645202 -3.73828125 23.37109375 C-3.49464844 21.59863281 -3.25101562 19.82617188 -3 18 C-2.01 12.06 -1.02 6.12 0 0 Z M-25.76171875 95.765625 C-26.50035156 96.50296875 -27.23898438 97.2403125 -28 98 C-28.93779297 98.92039062 -28.93779297 98.92039062 -29.89453125 99.859375 C-42.5553915 113.23473075 -49.27585718 131.93743023 -48.96142578 150.24609375 C-47.91037834 171.35726122 -39.43124866 189.54754213 -24 204 C-16.3998976 210.62338242 -8.40593559 215.39034206 1 219 C1.87269531 219.3403125 2.74539062 219.680625 3.64453125 220.03125 C21.55878879 225.69666673 41.67950433 222.69573412 58.25 214.75 C64.47495716 211.48764843 69.78251489 207.69008589 75 203 C75.61101562 202.48179687 76.22203125 201.96359375 76.8515625 201.4296875 C88.15289344 191.16044158 97.11432119 173.75255331 98.17700195 158.45141602 C98.70109101 135.38105755 94.91837064 116.70838822 79 99 C78.22269531 98.08347656 78.22269531 98.08347656 77.4296875 97.1484375 C64.85121204 83.30579365 45.86235128 76.1893263 27.5859375 75.0390625 C7.47249444 74.81996181 -11.11775929 81.84568906 -25.76171875 95.765625 Z " fill="#F44235" transform="translate(231,107)"/>
<path d="M0 0 C4.42757632 1.66256756 7.88591702 3.96154952 11.625 6.8125 C17.32758516 11.07600272 23.10972811 15.1873992 29 19.1875 C39.05901137 26.02606978 49.0428016 32.9694911 59.02099609 39.92529297 C63.04287876 42.72630583 67.06966797 45.5202252 71.09643555 48.31420898 C73.98663483 50.32228966 76.87260556 52.33631774 79.7578125 54.3515625 C83.00764297 56.62066793 86.27057501 58.86678443 89.5546875 61.0859375 C90.84902193 61.97386563 92.14329808 62.86187873 93.4375 63.75 C94.52933594 64.48734375 95.62117187 65.2246875 96.74609375 65.984375 C97.48988281 66.64953125 98.23367188 67.3146875 99 68 C99 72 99 72 97.62084961 73.39355469 C96.97124268 73.81540039 96.32163574 74.23724609 95.65234375 74.671875 C94.9140332 75.16276611 94.17572266 75.65365723 93.41503906 76.15942383 C92.59745117 76.68431396 91.77986328 77.2092041 90.9375 77.75 C89.1801368 78.91407819 87.42366398 80.0795014 85.66796875 81.24609375 C84.73903809 81.8582373 83.81010742 82.47038086 82.85302734 83.10107422 C78.1005447 86.26424468 73.42818595 89.54089022 68.75 92.8125 C66.80096614 94.17083825 64.85174561 95.52890868 62.90234375 96.88671875 C61.92894043 97.56524902 60.95553711 98.2437793 59.95263672 98.94287109 C57.01270389 100.99114908 54.07112558 103.03703928 51.12890625 105.08203125 C41.86739916 111.51935995 32.61243173 117.96566091 23.375 124.4375 C20.984707 126.11108182 18.59425014 127.78442895 16.20361328 129.45751953 C14.76678426 130.46326801 13.33024665 131.46943296 11.89404297 132.47607422 C10.03515765 133.77806867 8.17421256 135.07705286 6.3125 136.375 C5.29800781 137.08398438 4.28351563 137.79296875 3.23828125 138.5234375 C1 140 1 140 0 140 C-0.01981934 138.83952148 -0.03963867 137.67904297 -0.06005859 136.48339844 C-0.13617912 132.17442266 -0.22488666 127.86578172 -0.31738281 123.55712891 C-0.3556459 121.69293838 -0.39050346 119.8286747 -0.421875 117.96435547 C-0.46758356 115.28326284 -0.52556822 112.60267267 -0.5859375 109.921875 C-0.59748871 109.08944275 -0.60903992 108.2570105 -0.62094116 107.39935303 C-0.64081085 106.61884583 -0.66068054 105.83833862 -0.68115234 105.03417969 C-0.70113785 104.00825714 -0.70113785 104.00825714 -0.7215271 102.96160889 C-1.04760734 100.66464606 -1.87148034 99.01260578 -3 97 C-3.63147446 97.00745743 -4.26294891 97.01491486 -4.91355896 97.02259827 C-11.51710206 97.09168765 -18.11859294 97.09738919 -24.72241211 97.06713867 C-27.18305662 97.0640663 -29.64377636 97.07687669 -32.10424805 97.10620117 C-35.65292257 97.14568673 -39.19740084 97.12707123 -42.74609375 97.09765625 C-43.8370787 97.12223404 -44.92806366 97.14681183 -46.05210876 97.1721344 C-50.75569362 97.08469499 -53.81557722 96.93517361 -57.58596802 93.95822144 C-59.95336914 91.49389648 -59.95336914 91.49389648 -61.97377014 89.02781677 C-64.35322082 86.64650255 -65.66430141 86.15430184 -69 86 C-71.3495088 87.32349591 -73.26845268 88.61004558 -75.375 90.25 C-76.27931763 90.9155188 -76.27931763 90.9155188 -77.2019043 91.59448242 C-80.52181268 94.04903414 -83.74533408 96.59996612 -86.93359375 99.22265625 C-96.48278368 106.92658631 -96.48278368 106.92658631 -100.6640625 107.12890625 C-103.02534609 106.34586891 -104.88076916 105.29140629 -107 104 C-108.47545289 103.61064438 -109.95464109 103.23512288 -111.4375 102.875 C-113.28662109 102.13867188 -113.28662109 102.13867188 -115 101 C-117.52575403 92.40168842 -118.27536366 83.29129837 -119.41210938 74.421875 C-119.57388672 73.25398438 -119.73566406 72.08609375 -119.90234375 70.8828125 C-120.04148193 69.82465332 -120.18062012 68.76649414 -120.32397461 67.67626953 C-121.06711665 64.73429658 -121.4586537 63.63912368 -124 62 C-126.8028729 61.4939264 -126.8028729 61.4939264 -129.98046875 61.48828125 C-131.14384766 61.45283203 -132.30722656 61.41738281 -133.50585938 61.38085938 C-134.72080078 61.35830078 -135.93574219 61.33574219 -137.1875 61.3125 C-139.02731445 61.26125977 -139.02731445 61.26125977 -140.90429688 61.20898438 C-143.93587377 61.12641224 -146.96792309 61.0615327 -150 61 C-150 55.39 -150 49.78 -150 44 C-148.19009079 43.99191315 -146.38018158 43.98382629 -144.51542664 43.97549438 C-127.48971545 43.89813492 -110.46408435 43.81054041 -93.43847942 43.71247292 C-84.68467144 43.66231506 -75.93087297 43.61587255 -67.17700195 43.578125 C-59.54863135 43.54522135 -51.92033391 43.50539923 -44.29204398 43.45720994 C-40.25156543 43.4319287 -36.21113552 43.41015228 -32.17059898 43.39665604 C-28.36949068 43.38385034 -24.56854902 43.36181228 -20.76753235 43.33261681 C-19.37072358 43.32352931 -17.97388797 43.31784807 -16.57705116 43.31578636 C-14.67317113 43.31247226 -12.76932805 43.29583403 -10.86552429 43.2784729 C-9.79900981 43.27294214 -8.73249533 43.26741138 -7.63366222 43.26171303 C-4.76904209 43.18525874 -4.76904209 43.18525874 -2 41 C-0.71225554 37.13676662 -0.76617207 33.42509463 -0.68359375 29.39453125 C-0.6524221 28.13572395 -0.6524221 28.13572395 -0.62062073 26.85148621 C-0.55525982 24.17190706 -0.49630286 21.49223031 -0.4375 18.8125 C-0.39430198 16.99543263 -0.35068727 15.17837512 -0.30664062 13.36132812 C-0.1995922 8.90765201 -0.09828681 4.45387774 0 0 Z " fill="#F44235" transform="translate(412,34)"/>
<path d="M0 0 C0.02505615 1.16571533 0.0501123 2.33143066 0.07592773 3.5324707 C0.17004691 7.85436131 0.27025669 12.1760929 0.37231445 16.49780273 C0.41564622 18.36885866 0.45732257 20.23995369 0.49731445 22.11108398 C0.55505949 24.79943631 0.61874181 27.48759215 0.68359375 30.17578125 C0.70030624 31.01337479 0.71701874 31.85096832 0.73423767 32.71394348 C0.81914061 36.03673288 0.94250673 38.82752018 2 42 C4.4605841 43.23029205 6.0164269 43.09897874 8.76586914 43.0625 C9.7577272 43.053396 10.74958527 43.04429199 11.77149963 43.03491211 C13.38700966 43.01763062 13.38700966 43.01763062 15.03515625 43 C17.31184904 42.99884099 19.58854427 43.00022528 21.86523438 43.00390625 C25.45825403 43.00831576 29.04867269 43.00019809 32.64135742 42.94873047 C36.107254 42.90326824 39.56911195 42.91545131 43.03515625 42.9375 C44.09799332 42.90978516 45.16083038 42.88207031 46.25587463 42.85351562 C50.89684277 42.92726995 53.8564123 43.09177249 57.56808472 46.03955078 C59.93530273 48.50390625 59.93530273 48.50390625 61.96360779 50.97094727 C64.3498112 53.34855043 65.66199155 53.84570797 69 54 C71.3495088 52.67650409 73.26845268 51.38995442 75.375 49.75 C76.27931763 49.0844812 76.27931763 49.0844812 77.2019043 48.40551758 C80.52181268 45.95096586 83.74533408 43.40003388 86.93359375 40.77734375 C96.48278368 33.07341369 96.48278368 33.07341369 100.6640625 32.87109375 C103.02534609 33.65413109 104.88076916 34.70859371 107 36 C108.47545289 36.38935562 109.95464109 36.76487712 111.4375 37.125 C113.28662109 37.86132812 113.28662109 37.86132812 115 39 C117.52575403 47.59831158 118.27536366 56.70870163 119.41210938 65.578125 C119.57388672 66.74601562 119.73566406 67.91390625 119.90234375 69.1171875 C120.04148193 70.17534668 120.18062012 71.23350586 120.32397461 72.32373047 C121.06711665 75.26570342 121.4586537 76.36087632 124 78 C126.8028729 78.5060736 126.8028729 78.5060736 129.98046875 78.51171875 C131.72553711 78.56489258 131.72553711 78.56489258 133.50585938 78.61914062 C134.72080078 78.64169922 135.93574219 78.66425781 137.1875 78.6875 C138.41404297 78.72166016 139.64058594 78.75582031 140.90429688 78.79101562 C143.93587377 78.87358776 146.96792309 78.9384673 150 79 C150 84.61 150 90.22 150 96 C148.17756271 96.00142502 146.35512543 96.00285004 144.47746277 96.00431824 C127.33396346 96.0209607 110.19070021 96.0633516 93.047328 96.13209057 C84.23293976 96.16676885 75.41870837 96.19209979 66.60424805 96.19555664 C58.92306201 96.19859261 51.24215511 96.21903329 43.56107694 96.26052457 C39.49253609 96.28189 35.42439241 96.29443725 31.35579491 96.28615379 C27.52818983 96.27863569 23.70139097 96.2943433 19.87393379 96.32806015 C18.46745556 96.33632078 17.06089756 96.33601118 15.65442657 96.32659721 C13.73744815 96.31503405 11.82035403 96.3369892 9.90348816 96.36076355 C8.82959933 96.36352893 7.75571051 96.36629431 6.64927959 96.36914349 C3.78337284 96.75663071 3.78337284 96.75663071 2.15595245 99.41220856 C1.06055431 101.86443912 0.61194772 103.40552653 0.56762695 106.0559082 C0.54783279 106.81631912 0.52803864 107.57673004 0.50764465 108.36018372 C0.50125473 109.1655809 0.49486481 109.97097809 0.48828125 110.80078125 C0.46135445 112.0553437 0.46135445 112.0553437 0.43388367 113.33525085 C0.37990491 115.99428334 0.34592539 118.65313761 0.3125 121.3125 C0.27931589 123.12046744 0.24482522 124.9284114 0.20898438 126.73632812 C0.12418576 131.15742324 0.05731559 135.57846664 0 140 C-4.42754969 138.33744244 -7.88598544 136.0385425 -11.625 133.1875 C-17.38715205 128.87789492 -23.23442703 124.72914855 -29.1875 120.6875 C-35.74102685 116.23295339 -42.26401999 111.73991156 -48.75 107.1875 C-55.06779108 102.75323148 -61.39313807 98.330433 -67.7331543 93.92797852 C-69.687777 92.56970876 -71.64108725 91.20954818 -73.59301758 89.84741211 C-78.12034364 86.68813848 -82.65728771 83.54776979 -87.234375 80.4609375 C-88.03270752 79.9158252 -88.83104004 79.37071289 -89.65356445 78.80908203 C-91.13688437 77.79652393 -92.62729174 76.79424337 -94.12573242 75.80419922 C-96.08984375 74.453125 -96.08984375 74.453125 -99 72 C-99 68 -99 68 -97.62084961 66.60644531 C-96.97124268 66.18459961 -96.32163574 65.76275391 -95.65234375 65.328125 C-94.9140332 64.83723389 -94.17572266 64.34634277 -93.41503906 63.84057617 C-92.59745117 63.31568604 -91.77986328 62.7907959 -90.9375 62.25 C-89.1801368 61.08592181 -87.42366398 59.9204986 -85.66796875 58.75390625 C-84.27457275 57.83569092 -84.27457275 57.83569092 -82.85302734 56.89892578 C-78.10054393 53.73575481 -73.42820487 50.45908381 -68.75 47.1875 C-66.79705267 45.82656793 -64.84392604 44.4658931 -62.890625 43.10546875 C-61.91673828 42.42661621 -60.94285156 41.74776367 -59.93945312 41.04833984 C-55.12844227 37.6958165 -50.31406783 34.34813142 -45.5 31 C-43.60024717 29.67840446 -41.70050762 28.35678982 -39.80078125 27.03515625 C-35.79845623 24.25090053 -31.79580515 21.46711423 -27.79296875 18.68359375 C-26.77074219 17.97267578 -25.74851562 17.26175781 -24.6953125 16.52929688 C-22.75920058 15.18281904 -20.82300902 13.83645571 -18.88671875 12.49023438 C-17.55640625 11.56500977 -17.55640625 11.56500977 -16.19921875 10.62109375 C-15.34376465 10.0266748 -14.48831055 9.43225586 -13.60693359 8.81982422 C-11.78264513 7.54634171 -9.96302898 6.26615177 -8.14697266 4.98095703 C-7.23866699 4.33884277 -6.33036133 3.69672852 -5.39453125 3.03515625 C-4.16440308 2.16129272 -4.16440308 2.16129272 -2.90942383 1.26977539 C-1 0 -1 0 0 0 Z " fill="#F44235" transform="translate(100,338)"/>
<path d="M0 0 C6.565413 5.53119042 11.52248741 11.83804439 15.57421875 19.41796875 C16.16976562 20.48917969 16.16976562 20.48917969 16.77734375 21.58203125 C24.03116228 36.03553534 24.29263652 53.19738519 19.57421875 68.41796875 C13.56901049 84.77981547 3.19808325 96.50085749 -12.42578125 104.41796875 C-28.03119894 111.56777603 -45.21457062 112.25348156 -61.41015625 106.62890625 C-75.99332344 100.77297124 -87.01194862 91.28766686 -94.42578125 77.41796875 C-94.8228125 76.70382812 -95.21984375 75.9896875 -95.62890625 75.25390625 C-102.88272478 60.80040216 -103.14419902 43.63855231 -98.42578125 28.41796875 C-92.27674322 11.66424209 -81.47336032 -0.09294272 -65.48828125 -8.04296875 C-43.90697508 -17.76579679 -18.62589847 -14.62570551 0 0 Z M-43.67578125 -5.08203125 C-46.21239234 -1.45830113 -45.71659684 1.05573496 -45.42578125 5.41796875 C-46.84890625 5.47984375 -46.84890625 5.47984375 -48.30078125 5.54296875 C-55.38414488 6.59182381 -61.56336634 10.86095611 -65.92578125 16.41796875 C-69.77204977 22.1928195 -70.99393702 26.93701887 -70.08203125 33.828125 C-68.14550674 41.47048064 -63.17011905 46.16081622 -56.671875 50.2265625 C-52.67752022 52.34530721 -50.0136674 53.41796875 -45.42578125 53.41796875 C-45.42578125 61.99796875 -45.42578125 70.57796875 -45.42578125 79.41796875 C-55.42578125 74.41796875 -55.42578125 74.41796875 -57.171875 71.59375 C-57.51412109 70.17642578 -57.51412109 70.17642578 -57.86328125 68.73046875 C-58.86655494 64.2560341 -58.86655494 64.2560341 -62.42578125 61.41796875 C-65.19813539 61.62589531 -66.87649843 61.9881517 -69.078125 63.7109375 C-70.78699475 65.87550585 -70.76563655 66.82780632 -70.48828125 69.54296875 C-69.48110838 76.06308788 -66.27554203 81.07405303 -61.203125 85.24609375 C-56.13147821 88.73443846 -51.69982272 91.41796875 -45.42578125 91.41796875 C-45.50828125 92.65546875 -45.59078125 93.89296875 -45.67578125 95.16796875 C-45.66471504 98.2831059 -45.52632897 99.25941273 -43.80078125 101.98046875 C-41.44271902 103.69696357 -41.44271902 103.69696357 -38.30078125 103.35546875 C-35.13403193 102.65102188 -35.13403193 102.65102188 -33.42578125 99.41796875 C-33.18522657 97.36087279 -33.18522657 97.36087279 -33.30078125 95.23046875 C-33.34203125 93.97234375 -33.38328125 92.71421875 -33.42578125 91.41796875 C-32.47703125 91.37671875 -31.52828125 91.33546875 -30.55078125 91.29296875 C-23.46741762 90.24411369 -17.28819616 85.97498139 -12.92578125 80.41796875 C-9.07951273 74.643118 -7.85762548 69.89891863 -8.76953125 63.0078125 C-10.70605576 55.36545686 -15.68144345 50.67512128 -22.1796875 46.609375 C-26.17404228 44.49063029 -28.8378951 43.41796875 -33.42578125 43.41796875 C-33.42578125 34.83796875 -33.42578125 26.25796875 -33.42578125 17.41796875 C-23.42578125 22.41796875 -23.42578125 22.41796875 -21.6796875 25.2421875 C-21.45152344 26.18707031 -21.22335937 27.13195312 -20.98828125 28.10546875 C-19.98500756 32.5799034 -19.98500756 32.5799034 -16.42578125 35.41796875 C-13.65342711 35.21004219 -11.97506407 34.8477858 -9.7734375 33.125 C-8.06456775 30.96043165 -8.08592595 30.00813118 -8.36328125 27.29296875 C-9.37045412 20.77284962 -12.57602047 15.76188447 -17.6484375 11.58984375 C-22.72008429 8.10149904 -27.15173978 5.41796875 -33.42578125 5.41796875 C-33.34328125 4.18046875 -33.26078125 2.94296875 -33.17578125 1.66796875 C-33.17578125 -1.51979444 -33.27856083 -2.37171637 -35.17578125 -5.08203125 C-38.38443559 -7.22113414 -40.46712691 -7.22113414 -43.67578125 -5.08203125 Z " fill="#F44235" transform="translate(295.42578125,207.58203125)"/>
<path d="M0 0 C5.26472702 1.0529454 9.11675314 2.4319361 12.375 6.875 C13.52835353 10.79640201 13.47401472 13.82890481 11.9375 17.625 C9.28896232 20.87159458 6.7802838 22.17736317 3 24 C2.01 24 1.02 24 0 24 C0 16.08 0 8.16 0 0 Z " fill="#F44235" transform="translate(262,263)"/>
<path d="M0 0 C0 7.92 0 15.84 0 24 C-5.26472702 22.9470546 -9.11675314 21.5680639 -12.375 17.125 C-13.52835353 13.20359799 -13.47401472 10.17109519 -11.9375 6.375 C-8.83232745 2.56865945 -5.05614483 0 0 0 Z " fill="#F44335" transform="translate(250,225)"/>
</svg>
